<svg xmlns="http://www.w3.org/2000/svg" xmlns:xlink="http://www.w3.org/1999/xlink" viewBox="0 0 100 100"><defs/><defs><linearGradient id="a"><stop offset="0" stop-color="#47c8e2"/><stop offset=".23" stop-color="#2870a6"/><stop offset=".55" stop-color="#163d84"/><stop offset="1" stop-color="#04065f"/></linearGradient><linearGradient id="b" x1="50" x2="50.34" y1="10.03" y2="90.14" gradientTransform="matrix(1.33333 0 0 1.125 -16.67 -6.25)" gradientUnits="userSpaceOnUse" xlink:href="#a"/></defs><path fill="url(#b)" d="M63.33 16.25c0 4.16 2.67 7.76 6.67 9.79v1.46c0 8.89-5.07 13.28-11.47 18.79-2.8 2.47-5.86 5.06-8.4 8.1-2.66-3.38-5.86-6.08-8.8-8.55C35.07 40.44 30 36.16 30 27.5v-1.46c4-1.91 6.67-5.63 6.67-9.79 0-6.19-6-11.25-13.34-11.25C16 5 10 10.06 10 16.25c0 4.16 2.67 7.76 6.67 9.79v1.46c0 13.28 8 20.14 15.2 26.21 6.4 5.52 11.46 9.9 11.46 18.79v1.46c-4 1.92-6.66 5.63-6.66 9.79 0 6.19 6 11.25 13.33 11.25s13.33-5.06 13.33-11.25c0-4.16-2.66-7.76-6.66-9.79V72.5c0-8.66 5.06-12.94 11.33-18.34C74.8 48.31 83.33 41 83.33 27.5v-1.46c4-1.91 6.67-5.63 6.67-9.79C90 10.06 84 5 76.67 5c-7.34 0-13.34 5.06-13.34 11.25zm-48 0c0-3.71 3.6-6.75 8-6.75s8 3.04 8 6.75-3.6 6.75-8 6.75-8-3.04-8-6.75zM58 83.75c0 3.71-3.6 6.75-8 6.75s-8-3.04-8-6.75S45.6 77 50 77s8 3.04 8 6.75zm26.67-67.5c0 3.71-3.6 6.75-8 6.75s-8-3.04-8-6.75 3.6-6.75 8-6.75 8 3.04 8 6.75z"/></svg>